<svg width="24" height="24" fill="none" xmlns="http://www.w3.org/2000/svg"><path d="M6.234 2h.899v.89h.828V2h.898v2.695h-.898v-.898h-.82v.898h-.907m3.813-1.797h-.793V2h2.488v.898h-.797v1.797h-.898M12.137 2h.941l.578.95.578-.95h.942v2.695h-.899V3.36l-.629.97-.628-.97v1.336h-.883M15.62 2h.899v1.805h1.273v.89h-2.172" fill="currentColor"/><path fill-rule="evenodd" clip-rule="evenodd" d="M4.914 5.93l1.29 14.468L11.987 22l5.809-1.61 1.289-14.46H4.914zm2.633 2.957h8.891l-.165 1.773H9.492l.164 1.816H16.113l-.488 5.446L12 18.927v.01l-3.64-1.015-.25-2.785h1.78l.126 1.418 1.98.53 1.977-.53.207-2.305h-2.188v-.004h-3.96l-.485-5.36z" fill="currentColor"/></svg>