<svg width="24" height="24" fill="none" xmlns="http://www.w3.org/2000/svg"><path d="M8.25 2h2.149v.898h-1.25v.899h1.25v.898H8.25V2zm2.578 0h2.149v.781h-1.25v.156h1.25v1.797h-2.149v-.82h1.25v-.156h-1.25V2zm2.578 0h2.149v.781h-1.25v.156h1.25v1.797h-2.149v-.82h1.25v-.156h-1.25V2z" fill="currentColor"/><path fill-rule="evenodd" clip-rule="evenodd" d="M17.794 20.391l1.29-14.46H4.916l1.29 14.463L11.99 22l5.803-1.609zM12 8.887H7.552l.161 1.774h6.78l-.161 1.816h-6.46l.158 1.774h6.148l-.206 2.3-1.978.535h-.002l-1.975-.533-.127-1.415H8.11l.248 2.785 3.634 1.009.008-.002 3.63-1.007.027-.3.417-4.67.043-.476.32-3.59H12z" fill="currentColor"/></svg>