<svg width="24" height="24" fill="none" xmlns="http://www.w3.org/2000/svg"><path d="M12 13.773a1.773 1.773 0 1 0 0-3.546 1.773 1.773 0 0 0 0 3.546z" fill="currentColor"/><path fill-rule="evenodd" clip-rule="evenodd" d="M16.506 4.195c.27.156.493.473.612 1.026.118.553.116 1.285-.025 2.159-.05.316-.118.648-.204.991a20.832 20.832 0 0 0-2.565-.396 20.826 20.826 0 0 0-1.626-2.024c.255-.245.508-.47.756-.672.688-.559 1.32-.927 1.858-1.1.538-.174.925-.14 1.194.016zm-5.204 1.756c-.255-.245-.508-.47-.756-.672-.688-.559-1.32-.927-1.858-1.1-.538-.174-.925-.14-1.194.016-.27.156-.493.473-.612 1.026-.118.553-.115 1.285.025 2.159.05.316.118.648.204.991a20.829 20.829 0 0 1 2.565-.396 20.82 20.82 0 0 1 1.626-2.024zM12 5.235c-.276-.266-.551-.51-.824-.732-.742-.604-1.484-1.05-2.18-1.276-.696-.225-1.403-.244-2.002.102-.6.346-.936.967-1.09 1.683-.153.716-.136 1.581.015 2.526.056.347.13.707.222 1.08-.368.106-.718.222-1.045.347-.894.341-1.652.76-2.196 1.25-.543.49-.912 1.093-.912 1.785s.37 1.294.912 1.785c.544.49 1.302.909 2.196 1.25.327.125.677.241 1.045.347-.092.373-.166.733-.222 1.08-.151.945-.168 1.81-.015 2.526.154.716.49 1.337 1.09 1.683.6.346 1.306.327 2.002.102.696-.225 1.438-.672 2.18-1.276.273-.221.548-.466.824-.732.276.266.551.51.824.732.742.604 1.484 1.05 2.18 1.276.696.225 1.403.244 2.002-.102.6-.346.936-.967 1.09-1.683.153-.715.136-1.581-.015-2.526a13.09 13.09 0 0 0-.222-1.08c.368-.106.718-.222 1.045-.347.895-.341 1.652-.76 2.196-1.25.543-.49.912-1.093.912-1.785s-.37-1.295-.912-1.785c-.544-.49-1.302-.909-2.196-1.25a13.075 13.075 0 0 0-1.045-.348c.092-.372.166-.732.222-1.079.151-.945.168-1.81.015-2.526-.154-.716-.49-1.337-1.09-1.683-.6-.346-1.306-.327-2.002-.102-.696.225-1.438.672-2.18 1.276a13.08 13.08 0 0 0-.824.732zm4.616 4.1a19 19 0 0 0-1.564-.272 25.565 25.565 0 0 1 1.017 1.762c.211-.51.394-1.01.547-1.49zM16.648 12c.38-.83.695-1.644.94-2.42.34.098.66.205.96.319.827.316 1.462.68 1.882 1.058.42.38.582.732.582 1.043 0 .31-.163.664-.582 1.043-.42.378-1.055.742-1.882 1.058-.3.114-.62.22-.96.319a20.832 20.832 0 0 0-.94-2.42zm-1.106 0a24.195 24.195 0 0 0-1.77-3.068 24.208 24.208 0 0 0-3.543 0A24.206 24.206 0 0 0 8.458 12a24.185 24.185 0 0 0 1.77 3.068 24.226 24.226 0 0 0 3.543 0A24.173 24.173 0 0 0 15.542 12zm-.49 2.937a25.568 25.568 0 0 0 1.017-1.762c.211.51.394 1.01.547 1.49-.493.108-1.016.199-1.563.272zm-2.035 1.175a25.615 25.615 0 0 1-2.034 0c.337.438.677.845 1.017 1.218.34-.373.68-.78 1.017-1.218zm-.32 1.937a20.84 20.84 0 0 0 1.627-2.024c.909-.085 1.77-.22 2.565-.396.086.343.154.675.204.991.14.874.143 1.606.025 2.159-.119.553-.343.87-.612 1.026-.269.155-.656.19-1.194.017-.538-.174-1.17-.543-1.858-1.101a12.07 12.07 0 0 1-.756-.672zm-1.395 0c-.55-.6-1.097-1.28-1.626-2.024-.909-.085-1.77-.22-2.565-.396-.086.343-.154.675-.204.99-.14.875-.143 1.607-.025 2.16.119.553.343.87.612 1.026.269.155.656.19 1.194.017.538-.174 1.17-.543 1.858-1.101.248-.202.501-.427.756-.672zm-3.918-3.384c.493.108 1.016.199 1.564.272a25.585 25.585 0 0 1-1.017-1.762c-.211.51-.394 1.01-.547 1.49zm.547-3.84a25.664 25.664 0 0 1 1.017-1.762c-.548.073-1.07.164-1.564.272.153.48.336.98.547 1.49zM7.352 12c-.38.83-.695 1.644-.94 2.42-.34-.098-.66-.205-.96-.319-.827-.316-1.462-.68-1.882-1.059-.42-.378-.582-.731-.582-1.042 0-.31.163-.664.582-1.043.42-.378 1.055-.742 1.882-1.058.3-.114.62-.221.96-.32.245.777.56 1.591.94 2.421zm3.631-4.112a25.59 25.59 0 0 1 2.034 0A19.003 19.003 0 0 0 12 6.67c-.34.373-.68.78-1.017 1.218z" fill="currentColor"/></svg>